<svg width="16" height="16" viewBox="0 0 16 16" xmlns="http://www.w3.org/2000/svg" fill="currentColor"><path fill-rule="evenodd" clip-rule="evenodd" d="M13.0732 5.40527H13.9561V6.05371H14.6172V6.91895H15.5V8.43262H14.6172V9.08105H13.0732V11.459H12.4121V12.9727H11.5293V14.2705H12.4121V15.1348H13.0732V16H11.5293V15.1348H10.8672V14.4863H9.98535V12.9727H9.10254V15.1348H7.55859V16H2.04395V15.1348H1.38281V14.4863H0.5V12.1084H1.38281V12.9727H2.04395V9.94629H2.92676V9.08105H3.58789V8.43262H4.4707V7.56738H8.44141V5.40527H7.55859V4.54102H6.89746V3.8916H6.01465V3.02734H5.13281V0.648438H6.67676V1.51367H7.55859V2.37793H8.44141V0.865234H7.55859V0H9.10254V0.865234H9.98535V2.37793H10.8672V4.54102H13.0732V5.40527ZM9.98535 4.54102V3.02734H9.10254V4.54102H9.98535ZM7.55859 13.6221H6.67676V14.4863H5.79395V15.3516H6.67676V14.4863H7.55859V13.6221H8.44141V12.3242H7.55859V13.6221ZM6.67676 12.3242H7.55859V11.459H6.67676V12.3242ZM4.91211 11.459H6.67676V10.5947H4.91211V11.459ZM11.5293 7.56738H13.0732V6.05371H11.5293V7.56738ZM8.44141 3.02734H9.10254V2.37793H8.44141V3.02734Z"/></svg>