<svg width="17" height="16" viewBox="0 0 17 16" xmlns="http://www.w3.org/2000/svg" fill="currentColor"><path d="M3.5 15H1.5V13H3.5V15Z"/><path d="M15.5 15H13.5V13H15.5V15Z"/><path d="M5.5 13H3.5V11H5.5V13Z"/><path d="M13.5 13H11.5V11H13.5V13Z"/><path d="M7.5 11H5.5V9H7.5V11Z"/><path d="M11.5 11H9.5V9H11.5V11Z"/><path d="M9.5 9H7.5V7H9.5V9Z"/><path d="M7.5 7H5.5V5H7.5V7Z"/><path d="M11.5 7H9.5V5H11.5V7Z"/><path d="M5.5 5H3.5V3H5.5V5Z"/><path d="M13.5 5H11.5V3H13.5V5Z"/><path d="M3.5 3H1.5V1H3.5V3Z"/><path d="M15.5 3H13.5V1H15.5V3Z"/></svg>