<svg width="17" height="16" viewBox="0 0 17 16" xmlns="http://www.w3.org/2000/svg" fill="currentColor"><path fill-rule="evenodd" clip-rule="evenodd" d="M13.5732 5.40527H14.4561V6.05371H15.1172V6.91895H16V8.43262H15.1172V9.08105H13.5732V11.459H12.9121V12.9727H12.0293V14.2705H12.9121V15.1348H13.5732V16H12.0293V15.1348H11.3672V14.4863H10.4854V12.9727H9.60254V15.1348H8.05859V16H2.54395V15.1348H1.88281V14.4863H1V12.1084H1.88281V12.9727H2.54395V9.94629H3.42676V9.08105H4.08789V8.43262H4.9707V7.56738H8.94141V5.40527H8.05859V4.54102H7.39746V3.8916H6.51465V3.02734H5.63281V0.648438H7.17676V1.51367H8.05859V2.37793H8.94141V0.865234H8.05859V0H9.60254V0.865234H10.4854V2.37793H11.3672V4.54102H13.5732V5.40527ZM10.4854 4.54102V3.02734H9.60254V4.54102H10.4854ZM8.05859 13.6221H7.17676V14.4863H6.29395V15.3516H7.17676V14.4863H8.05859V13.6221H8.94141V12.3242H8.05859V13.6221ZM7.17676 12.3242H8.05859V11.459H7.17676V12.3242ZM5.41211 11.459H7.17676V10.5947H5.41211V11.459ZM12.0293 7.56738H13.5732V6.05371H12.0293V7.56738ZM8.94141 3.02734H9.60254V2.37793H8.94141V3.02734Z"/></svg>